<svg width="66" height="73" viewBox="0 0 66 73" fill="none" xmlns="http://www.w3.org/2000/svg">
<path d="M62.6883 47.4147C52.8977 45.1035 42.8686 43.9549 32.8089 43.9927C22.73 43.9537 12.6819 45.1071 2.87405 47.4289C1.69292 51.4093 0.882229 55.4903 0.452332 59.6199C0.891357 63.3445 2.25478 66.7434 5.98843 66.9224C9.13499 67.1014 11.8387 65.5551 14.6737 63.9329C19.724 61.1352 25.3475 59.5299 31.1137 59.2398C36.8799 58.9497 42.6361 59.9825 47.9417 62.2592C52.3037 64.2239 63.663 73.0443 65.0573 59.7242C64.8018 55.536 64.0055 51.3986 62.6883 47.4147Z" fill="#40BBF7"/>
<path d="M32.8089 41.418C42.9187 41.3751 52.9989 42.5115 62.8454 44.8041C66.3216 33.4177 65.9006 24.269 61.5889 17.6025C50.8862 1.05734 14.7638 1.00713 4.0289 17.6025C-0.278951 24.2639 -0.703814 33.4126 2.77234 44.8041C12.6187 42.5106 22.6991 41.3742 32.8089 41.418ZM27.135 14.1624C28.2361 14.1721 29.3215 14.4251 30.3133 14.9035C31.3051 15.3818 32.1789 16.0736 32.872 16.9292C33.5746 16.076 34.4549 15.3864 35.4516 14.9085C36.4482 14.4306 37.5372 14.176 38.6424 14.1624C42.5936 14.1624 45.6835 17.6244 45.6835 22.0443C45.6835 27.7194 40.289 31.5522 34.6281 36.6686C34.1522 37.1004 33.5326 37.3396 32.89 37.3396C32.2474 37.3396 31.6278 37.1004 31.1519 36.6686C27.9461 33.7692 24.1249 30.6175 22.1191 27.8147C17.5396 21.4765 21.3504 14.1624 27.135 14.1624Z" fill="#40BBF7"/>
<path d="M27.135 14.1624C28.2361 14.1721 29.3215 14.4251 30.3133 14.9035C31.3051 15.3818 32.1789 16.0736 32.872 16.9292C33.5746 16.076 34.4549 15.3864 35.4516 14.9085C36.4482 14.4306 37.5372 14.176 38.6424 14.1624C42.5936 14.1624 45.6835 17.6244 45.6835 22.0443C45.6835 27.7194 40.289 31.5522 34.6281 36.6686C34.1522 37.1004 33.5326 37.3396 32.89 37.3396C32.2474 37.3396 31.6278 37.1004 31.1519 36.6686C27.9461 33.7692 24.1249 30.6175 22.1191 27.8147C17.5396 21.4765 21.3504 14.1624 27.135 14.1624Z" fill="#40BBF7"/>
<path d="M30.1691 27.9981L29.792 33.3041C30.3315 33.3041 30.5652 33.0723 30.8456 32.7938L33.3753 30.3755L38.6174 34.2153C39.5788 34.7513 40.2561 34.4691 40.5155 33.3308L43.9563 17.2035C44.2612 15.782 43.4433 15.225 42.5066 15.5738L22.2813 23.319C20.901 23.855 20.9219 24.6248 22.0467 24.9735L27.2176 26.5822L39.2282 19.065C39.7934 18.6906 40.3074 18.8977 39.8846 19.2721L30.1691 27.9981Z" fill="white"/>
<path d="M36.4975 2.71678C36.2531 1.92962 35.7632 1.24132 35.0995 0.7525C34.4358 0.263685 33.6332 0 32.8089 0C31.9847 0 31.1821 0.263685 30.5184 0.7525C29.8547 1.24132 29.3648 1.92962 29.1204 2.71678C31.5755 2.52169 34.0423 2.52169 36.4975 2.71678Z" fill="#40BBF7"/>
<path d="M50.2554 66.4127C49.161 65.7558 48.0344 65.1542 46.8797 64.6103C42.446 62.6715 37.6474 61.7082 32.809 61.7856C28.6053 61.7432 24.4278 62.4526 20.4738 63.8803C16.4723 65.3892 7.0172 73.1899 1.00861 67.4401C3.0222 74.2032 8.53512 72.6131 14.6557 69.1022C20.1231 65.8059 26.4282 64.1634 32.809 64.3734C49.4288 64.3734 52.4273 72.4586 59.6217 72.0982C60.2609 72.0958 60.8928 71.9612 61.4775 71.7028C62.0622 71.4445 62.5871 71.068 63.0193 70.597C63.7626 69.7052 64.2912 68.6547 64.5643 67.5264C60.7083 71.2523 54.9031 69.1061 50.2554 66.4127Z" fill="#40BBF7"/>
</svg>
