<svg width="65" height="73" viewBox="0 0 65 73" fill="none" xmlns="http://www.w3.org/2000/svg">
<path d="M62.2407 47.4147C52.45 45.1035 42.421 43.9549 32.3612 43.9927C22.2824 43.9537 12.2343 45.1071 2.42642 47.4289C1.24529 51.4093 0.434597 55.4903 0.00469971 59.6199C0.443725 63.3445 1.80715 66.7434 5.5408 66.9224C8.68736 67.1014 11.391 65.5551 14.226 63.9329C19.2764 61.1352 24.8998 59.5299 30.6661 59.2398C36.4323 58.9497 42.1884 59.9825 47.4941 62.2592C51.856 64.2239 63.2153 73.0443 64.6096 59.7242C64.3542 55.536 63.5579 51.3986 62.2407 47.4147Z" fill="#F00044"/>
<path d="M32.3612 41.418C42.471 41.3751 52.5513 42.5115 62.3978 44.8041C65.8739 33.4177 65.4529 24.269 61.1412 17.6025C50.4385 1.05734 14.3161 1.00713 3.58127 17.6025C-0.726583 24.2639 -1.15145 33.4126 2.32471 44.8041C12.171 42.5106 22.2514 41.3742 32.3612 41.418ZM26.6874 14.1624C27.7885 14.1721 28.8738 14.4251 29.8656 14.9035C30.8575 15.3818 31.7312 16.0736 32.4243 16.9292C33.127 16.076 34.0073 15.3864 35.004 14.9085C36.0006 14.4306 37.0895 14.176 38.1947 14.1624C42.146 14.1624 45.2359 17.6244 45.2359 22.0443C45.2359 27.7194 39.8414 31.5522 34.1804 36.6686C33.7045 37.1004 33.085 37.3396 32.4424 37.3396C31.7998 37.3396 31.1802 37.1004 30.7043 36.6686C27.4985 33.7692 23.6773 30.6175 21.6714 27.8147C17.0919 21.4765 20.9028 14.1624 26.6874 14.1624Z" fill="#08FFF9"/>
<path d="M26.6874 14.1624C27.7885 14.1721 28.8738 14.4251 29.8656 14.9035C30.8575 15.3818 31.7312 16.0736 32.4243 16.9292C33.127 16.076 34.0073 15.3864 35.004 14.9085C36.0006 14.4306 37.0895 14.176 38.1947 14.1624C42.146 14.1624 45.2359 17.6244 45.2359 22.0443C45.2359 27.7194 39.8414 31.5522 34.1804 36.6686C33.7045 37.1004 33.085 37.3396 32.4424 37.3396C31.7998 37.3396 31.1802 37.1004 30.7043 36.6686C27.4985 33.7692 23.6773 30.6175 21.6714 27.8147C17.0919 21.4765 20.9028 14.1624 26.6874 14.1624Z" fill="#08FFF9"/>
<path d="M36.0499 2.71678C35.8054 1.92962 35.3155 1.24132 34.6519 0.7525C33.9882 0.263685 33.1856 0 32.3613 0C31.5371 0 30.7344 0.263685 30.0708 0.7525C29.4071 1.24132 28.9172 1.92962 28.6727 2.71678C31.1279 2.52169 33.5947 2.52169 36.0499 2.71678Z" fill="#08FFF9"/>
<path d="M49.8078 66.4127C48.7134 65.7558 47.5868 65.1542 46.432 64.6103C41.9983 62.6715 37.1998 61.7082 32.3613 61.7856C28.1576 61.7432 23.9802 62.4526 20.0261 63.8803C16.0247 65.3892 6.56957 73.1899 0.560974 67.4401C2.57457 74.2032 8.08749 72.6131 14.2081 69.1022C19.6755 65.8059 25.9806 64.1634 32.3613 64.3734C48.9812 64.3734 51.9797 72.4586 59.1741 72.0982C59.8133 72.0958 60.4451 71.9612 61.0298 71.7028C61.6145 71.4445 62.1395 71.068 62.5717 70.597C63.315 69.7052 63.8435 68.6547 64.1166 67.5264C60.2607 71.2523 54.4555 69.1061 49.8078 66.4127Z" fill="#F00044"/>
<path d="M28.8145 25.4879C26.8682 25.4879 25.296 27.0602 25.3247 28.9871C25.344 30.2239 26.0245 31.2976 27.0264 31.8968C26.6861 31.3743 26.4847 30.7559 26.4752 30.0896C26.4464 28.1626 28.0187 26.5903 29.9648 26.5903C30.3483 26.5903 30.7174 26.6527 31.0626 26.7629V22.9042C30.703 22.8514 30.3339 22.8228 29.9648 22.8228C29.9457 22.8228 29.9313 22.8228 29.9122 22.8228V25.6605C29.567 25.5502 29.1979 25.4879 28.8145 25.4879Z" fill="#F00044"/>
<path d="M37.2236 13.9165H37.1948H36.1978C36.4854 15.3594 37.2955 16.6153 38.4268 17.4684C37.6837 16.4859 37.2332 15.2588 37.2236 13.9165Z" fill="#F00044"/>
<path d="M43.0929 19.7881C42.7142 19.7881 42.3498 19.7497 41.9904 19.6826V22.4485C40.6866 22.4485 39.421 22.1944 38.2322 21.6863C37.4653 21.3603 36.751 20.9433 36.0943 20.44L36.1135 28.9677C36.104 30.885 35.3466 32.6826 33.9756 34.0391C32.8588 35.1417 31.4447 35.8463 29.9107 36.0716C29.5513 36.1243 29.1822 36.153 28.813 36.153C27.1736 36.153 25.611 35.621 24.3407 34.6383C24.4845 34.8109 24.6379 34.9786 24.8057 35.1417C26.1862 36.503 28.0173 37.2555 29.9683 37.2555C30.3373 37.2555 30.7064 37.2269 31.066 37.174C32.5998 36.9488 34.0139 36.2442 35.1308 35.1417C36.5018 33.785 37.2591 31.9875 37.2688 30.0701L37.1968 21.5425C37.8487 22.0459 38.563 22.4676 39.3348 22.7888C40.5284 23.2921 41.7938 23.551 43.0929 23.551" fill="#F00044"/>
<path d="M24.7866 24.9468C26.1528 23.5902 27.9695 22.8377 29.9061 22.8233V21.8022C29.5465 21.7495 29.1775 21.7207 28.8084 21.7207C26.8526 21.7207 25.0168 22.4734 23.6362 23.8443C22.2797 25.1912 21.5031 27.0319 21.5079 28.9445C21.5079 30.8715 22.2701 32.6787 23.6459 34.0448C23.8663 34.2605 24.0917 34.4618 24.3313 34.6441C23.248 33.3545 22.6583 31.7439 22.6535 30.0471C22.6583 28.1344 23.4301 26.2938 24.7866 24.9468Z" fill="#08FFF9"/>
<path d="M41.9826 19.6835V18.6576H41.9731C40.6405 18.6576 39.4134 18.2165 38.4259 17.4688C39.2839 18.6 40.5399 19.4054 41.9826 19.6835Z" fill="#08FFF9"/>
<path d="M29.7661 33.484C30.2215 33.5079 30.6577 33.4457 31.0604 33.3161C32.4505 32.8609 33.4523 31.5665 33.4523 30.0423L33.4571 24.338V13.9169H36.1991C36.1271 13.5575 36.0888 13.1932 36.0839 12.8145H32.3067V23.2308L32.3019 28.9349C32.3019 30.4593 31.3001 31.7535 29.9099 32.2089C29.5073 32.3431 29.0711 32.4054 28.6157 32.3766C28.0357 32.3431 27.4941 32.1705 27.0243 31.8925C27.6139 32.8033 28.6204 33.4217 29.7661 33.484Z" fill="#00D8D2"/>
<path d="M29.9068 36.0725C31.4408 35.8472 32.8547 35.1426 33.9717 34.0401C35.3426 32.6835 36.0999 30.886 36.1096 28.9686L36.0904 20.4409C36.7423 20.9443 37.4566 21.3661 38.2283 21.6872C39.4219 22.1906 40.6874 22.4494 41.9863 22.4494V19.6836C40.5436 19.4055 39.2877 18.6002 38.4296 17.4689C37.2984 16.6158 36.4834 15.3599 36.2007 13.917H33.454V24.3333L33.4492 30.0375C33.4492 31.5618 32.4474 32.856 31.0572 33.3115C30.6546 33.4456 30.2184 33.508 29.763 33.4792C28.6126 33.417 27.6107 32.7986 27.0211 31.8926C26.0193 31.2981 25.3386 30.2197 25.3194 28.983C25.2907 27.056 26.8629 25.4837 28.8091 25.4837C29.1925 25.4837 29.5617 25.546 29.9068 25.6563V22.8186C27.9702 22.8328 26.1535 23.5855 24.7873 24.942C23.4308 26.2891 22.6542 28.1297 22.6591 30.0375C22.6591 31.7344 23.2487 33.345 24.3367 34.6345C25.6118 35.6172 27.1697 36.1492 28.8091 36.1492C29.1781 36.1541 29.5473 36.1253 29.9068 36.0725Z" fill="black"/>
</svg>
