<svg width="66" height="73" viewBox="0 0 66 73" fill="none" xmlns="http://www.w3.org/2000/svg">
<path d="M62.9648 47.4147C53.1741 45.1035 43.145 43.9549 33.0853 43.9927C23.0064 43.9537 12.9584 45.1071 3.15048 47.4289C1.96935 51.4093 1.15866 55.4903 0.72876 59.6199C1.16779 63.3445 2.53121 66.7434 6.26486 66.9224C9.41142 67.1014 12.1151 65.5551 14.9501 63.9329C20.0005 61.1352 25.6239 59.5299 31.3901 59.2398C37.1563 58.9497 42.9125 59.9825 48.2182 62.2592C52.5801 64.2239 63.9394 73.0443 65.3337 59.7242C65.0782 55.536 64.282 51.3986 62.9648 47.4147Z" fill="black"/>
<path d="M33.0853 41.418C43.1951 41.3751 53.2754 42.5115 63.1218 44.8041C66.598 33.4177 66.177 24.269 61.8653 17.6025C51.1626 1.05734 15.0402 1.00713 4.30533 17.6025C-0.00252259 24.2639 -0.427386 33.4126 3.04877 44.8041C12.8951 42.5106 22.9755 41.3742 33.0853 41.418ZM27.4115 14.1624C28.5126 14.1721 29.5979 14.4251 30.5897 14.9035C31.5815 15.3818 32.4553 16.0736 33.1484 16.9292C33.851 16.076 34.7314 15.3864 35.728 14.9085C36.7247 14.4306 37.8136 14.176 38.9188 14.1624C42.87 14.1624 45.9599 17.6244 45.9599 22.0443C45.9599 27.7194 40.5655 31.5522 34.9045 36.6686C34.4286 37.1004 33.809 37.3396 33.1664 37.3396C32.5238 37.3396 31.9042 37.1004 31.4283 36.6686C28.2226 33.7692 24.4014 30.6175 22.3955 27.8147C17.816 21.4765 21.6269 14.1624 27.4115 14.1624Z" fill="black"/>
<path d="M27.4115 14.1624C28.5126 14.1721 29.5979 14.4251 30.5897 14.9035C31.5815 15.3818 32.4553 16.0736 33.1484 16.9292C33.851 16.076 34.7314 15.3864 35.728 14.9085C36.7247 14.4306 37.8136 14.176 38.9188 14.1624C42.87 14.1624 45.9599 17.6244 45.9599 22.0443C45.9599 27.7194 40.5655 31.5522 34.9045 36.6686C34.4286 37.1004 33.809 37.3396 33.1664 37.3396C32.5238 37.3396 31.9042 37.1004 31.4283 36.6686C28.2226 33.7692 24.4014 30.6175 22.3955 27.8147C17.816 21.4765 21.6269 14.1624 27.4115 14.1624Z" fill="black"/>
<path d="M36.774 2.71678C36.5295 1.92962 36.0396 1.24132 35.3759 0.7525C34.7123 0.263685 33.9096 0 33.0854 0C32.2611 0 31.4585 0.263685 30.7948 0.7525C30.1312 1.24132 29.6413 1.92962 29.3968 2.71678C31.852 2.52169 34.3188 2.52169 36.774 2.71678Z" fill="black"/>
<path d="M50.5318 66.4127C49.4375 65.7558 48.3108 65.1542 47.1561 64.6103C42.7224 62.6715 37.9238 61.7082 33.0854 61.7856C28.8817 61.7432 24.7043 62.4526 20.7502 63.8803C16.7488 65.3892 7.29363 73.1899 1.28503 67.4401C3.29863 74.2032 8.81155 72.6131 14.9322 69.1022C20.3996 65.8059 26.7046 64.1634 33.0854 64.3734C49.7053 64.3734 52.7038 72.4586 59.8981 72.0982C60.5374 72.0958 61.1692 71.9612 61.7539 71.7028C62.3386 71.4445 62.8636 71.068 63.2957 70.597C64.039 69.7052 64.5676 68.6547 64.8407 67.5264C60.9847 71.2523 55.1796 69.1061 50.5318 66.4127Z" fill="black"/>
<path d="M39.3775 15.4727H42.6014L35.558 23.5228L43.844 34.4773H37.3561L32.2746 27.8335L26.4601 34.4773H23.2342L30.7679 25.8668L22.819 15.4727H29.4716L34.0649 21.5454L39.3775 15.4727ZM38.246 32.5476H40.0324L28.5009 17.301H26.5839L38.246 32.5476Z" fill="white"/>
</svg>
