<svg width="48" height="34" viewBox="0 0 48 34" fill="none" xmlns="http://www.w3.org/2000/svg">
<path d="M1.90792 2.70289C1.10634 1.56732 1.91846 0 3.30844 0H44.6916C46.0815 0 46.8937 1.56732 46.0921 2.70289L25.4005 32.0159C24.7175 32.9835 23.2825 32.9835 22.5995 32.0159L1.90792 2.70289Z" fill="#2B388F"/>
<mask id="mask0_1_793" style="mask-type:alpha" maskUnits="userSpaceOnUse" x="1" y="0" width="46" height="33">
<path d="M1.90792 2.70289C1.10634 1.56732 1.91846 0 3.30844 0H44.6916C46.0815 0 46.8937 1.56732 46.0921 2.70289L25.4005 32.0159C24.7175 32.9835 23.2825 32.9835 22.5995 32.0159L1.90792 2.70289Z" fill="#2B388F"/>
</mask>
<g mask="url(#mask0_1_793)">
<path d="M24 0.000244141H48L24 34.0002V0.000244141Z" fill="#3B4DC9"/>
</g>
</svg>
