<svg width="49" height="48" viewBox="0 0 49 48" fill="none" xmlns="http://www.w3.org/2000/svg">
<path d="M43.3133 0H5.68673C2.82228 0 0.5 2.32228 0.5 5.18673V42.8133C0.5 45.6777 2.82228 48 5.68673 48H43.3133C46.1777 48 48.5 45.6777 48.5 42.8133V5.18673C48.5 2.32228 46.1777 0 43.3133 0ZM24.4888 42.1063C14.4561 42.1063 6.32255 33.9727 6.32255 23.9401C6.32255 13.9065 14.4561 5.77386 24.4888 5.77386C34.5214 5.77386 42.655 13.9065 42.655 23.9401C42.655 33.9727 34.5214 42.1063 24.4888 42.1063Z" fill="#D12035"/>
<g clip-path="url(#clip0_1_518)">
<path d="M16.2924 26.5H13.9999V25.6667C13.9873 24.4982 14.2967 23.3489 14.8943 22.3447C15.4918 21.3406 16.3544 20.5204 17.3874 19.9742C18.405 19.4724 19.5071 19.1644 20.6374 19.0658C20.1435 19.6769 19.6482 20.3264 19.1516 21.0142C18.0329 22.7516 17.0759 24.5879 16.2924 26.5ZM26.9857 28.8442C25.2485 29.9643 23.4122 30.9227 21.4999 31.7075V34H22.3332C23.5017 34.0126 24.651 33.7032 25.6552 33.1056C26.6593 32.5081 27.4795 31.6455 28.0257 30.6125C28.5275 29.5949 28.8355 28.4928 28.9341 27.3625C28.3257 27.8542 27.6763 28.3481 26.9857 28.8442ZM33.9999 16.4925C33.8891 20.12 31.2774 23.7175 26.0149 27.4925C24.5828 28.4209 23.072 29.2217 21.4999 29.8858V29.4167C21.4962 28.6443 21.1877 27.9046 20.6415 27.3584C20.0953 26.8122 19.3556 26.5037 18.5832 26.5H18.1141C18.779 24.9279 19.581 23.4173 20.5107 21.9858C24.2766 16.7317 27.8682 14.12 31.4899 14C33.2949 14 33.9999 14.7375 33.9999 16.4925ZM28.9999 21.0833C28.9999 20.5308 28.7804 20.0009 28.3897 19.6102C27.999 19.2195 27.4691 19 26.9166 19C26.364 19 25.8341 19.2195 25.4434 19.6102C25.0527 20.0009 24.8332 20.5308 24.8332 21.0833C24.8332 21.6359 25.0527 22.1658 25.4434 22.5565C25.8341 22.9472 26.364 23.1667 26.9166 23.1667C27.4691 23.1667 27.999 22.9472 28.3897 22.5565C28.7804 22.1658 28.9999 21.6359 28.9999 21.0833ZM15.1449 33.8208C16.0832 33.6542 18.3457 33.1892 19.1016 32.4342C19.3337 32.202 19.5179 31.9264 19.6435 31.623C19.7692 31.3197 19.8339 30.9946 19.8339 30.6663C19.8339 30.3379 19.7692 30.0128 19.6435 29.7095C19.5179 29.4061 19.3337 29.1305 19.1016 28.8983C18.8694 28.6662 18.5938 28.482 18.2904 28.3564C17.9871 28.2307 17.662 28.166 17.3337 28.166C16.6706 28.166 16.0346 28.4295 15.5657 28.8983C14.8107 29.6542 14.3449 31.9167 14.1791 32.855L13.9732 34.0267L15.1449 33.8208Z" fill="#D12035"/>
</g>
<defs>
<clipPath id="clip0_1_518">
<rect width="20" height="20" fill="white" transform="translate(14 14)"/>
</clipPath>
</defs>
</svg>
