<svg width="48" height="48" viewBox="0 0 48 48" fill="none" xmlns="http://www.w3.org/2000/svg">
<g clip-path="url(#clip0_1_529)">
<path d="M42.8133 0H5.18673C2.32228 0 0 2.32228 0 5.18673V42.8133C0 45.6777 2.32228 48 5.18673 48H42.8133C45.6777 48 48 45.6777 48 42.8133V5.18673C48 2.32228 45.6777 0 42.8133 0ZM23.9888 42.1063C13.9561 42.1063 5.82255 33.9727 5.82255 23.9401C5.82255 13.9065 13.9561 5.77386 23.9888 5.77386C34.0214 5.77386 42.155 13.9065 42.155 23.9401C42.155 33.9727 34.0214 42.1063 23.9888 42.1063Z" fill="#D12035"/>
<path fill-rule="evenodd" clip-rule="evenodd" d="M32.4089 18.1278C32.1354 21.0007 30.9528 27.9713 30.3507 31.1888C30.096 32.5503 29.595 33.0063 29.109 33.0513C28.0546 33.1477 27.253 32.3536 26.2314 31.6841C24.633 30.6363 23.7294 29.9836 22.1777 28.9611C20.3836 27.7793 21.5466 27.1295 22.5692 26.0676C22.836 25.7895 27.4843 21.5616 27.5742 21.1786C27.5855 21.1309 27.5958 20.952 27.49 20.8574C27.3841 20.7629 27.2268 20.7947 27.1135 20.8209C26.9534 20.8574 24.3989 22.5458 19.4509 25.8859C18.7262 26.3831 18.0697 26.6257 17.4807 26.6135C16.8328 26.5995 15.5845 26.2464 14.6575 25.9449C13.5198 25.575 12.6152 25.3793 12.6939 24.7519C12.7351 24.4242 13.1855 24.0899 14.046 23.7481C19.3414 21.4408 22.8726 19.9192 24.6395 19.185C29.6849 17.0865 30.7327 16.7213 31.4163 16.7101C31.5661 16.7073 31.9023 16.7438 32.1205 16.9208C32.304 17.0697 32.3546 17.271 32.3789 17.4124C32.4033 17.5538 32.4332 17.8759 32.4089 18.1278Z" fill="#D12035"/>
</g>
<defs>
<clipPath id="clip0_1_529">
<rect width="48" height="48" fill="white"/>
</clipPath>
</defs>
</svg>
