<svg width="48" height="48" viewBox="0 0 48 48" fill="none" xmlns="http://www.w3.org/2000/svg">
<path d="M42.8133 0H5.18673C2.32228 0 0 2.32228 0 5.18673V42.8133C0 45.6777 2.32228 48 5.18673 48H42.8133C45.6777 48 48 45.6777 48 42.8133V5.18673C48 2.32228 45.6777 0 42.8133 0ZM23.9888 42.1063C13.9561 42.1063 5.82255 33.9727 5.82255 23.9401C5.82255 13.9065 13.9561 5.77386 23.9888 5.77386C34.0214 5.77386 42.155 13.9065 42.155 23.9401C42.155 33.9727 34.0214 42.1063 23.9888 42.1063Z" fill="#D12035"/>
<path d="M34.0706 17.8065L24.3281 12.1815C24.2284 12.1238 24.1152 12.0935 24 12.0935C23.8848 12.0935 23.7716 12.1238 23.6719 12.1815L13.9294 17.8065C13.8296 17.8641 13.7467 17.947 13.6891 18.0468C13.6315 18.1466 13.6012 18.2598 13.6013 18.375V29.625C13.6012 29.7402 13.6315 29.8535 13.6891 29.9533C13.7467 30.0531 13.8296 30.1359 13.9294 30.1935L23.6719 35.8185C23.7716 35.8762 23.8848 35.9066 24 35.9066C24.1152 35.9066 24.2284 35.8762 24.3281 35.8185L34.0706 30.1935C34.1704 30.1359 34.2533 30.0531 34.3109 29.9533C34.3685 29.8535 34.3988 29.7402 34.3988 29.625V18.375C34.3988 18.2598 34.3685 18.1466 34.3109 18.0468C34.2533 17.947 34.1704 17.8641 34.0706 17.8065ZM21.2813 26.625C21.2812 26.7697 21.2333 26.9102 21.1451 27.0249C21.0569 27.1395 20.9332 27.2218 20.7934 27.2589C20.6536 27.296 20.5055 27.2859 20.372 27.2302C20.2385 27.1744 20.1272 27.0761 20.0554 26.9505L18.2813 23.8463V26.625C18.2813 26.7991 18.2121 26.966 18.089 27.0891C17.966 27.2121 17.7991 27.2813 17.625 27.2813C17.451 27.2813 17.284 27.2121 17.161 27.0891C17.0379 26.966 16.9688 26.7991 16.9688 26.625V21.375C16.9688 21.2304 17.0167 21.0898 17.1049 20.9751C17.1932 20.8605 17.3168 20.7782 17.4566 20.7411C17.5964 20.704 17.7446 20.7141 17.878 20.7699C18.0115 20.8256 18.1228 20.924 18.1946 21.0495L19.9688 24.1538V21.375C19.9688 21.201 20.0379 21.034 20.161 20.911C20.284 20.7879 20.451 20.7188 20.625 20.7188C20.7991 20.7188 20.966 20.7879 21.089 20.911C21.2121 21.034 21.2813 21.201 21.2813 21.375V26.625ZM25.5 23.3438C25.6741 23.3438 25.841 23.4129 25.964 23.536C26.0871 23.659 26.1563 23.826 26.1563 24C26.1563 24.1741 26.0871 24.341 25.964 24.4641C25.841 24.5871 25.6741 24.6563 25.5 24.6563H23.9063V26.625C23.9063 26.7991 23.8371 26.966 23.714 27.0891C23.591 27.2121 23.4241 27.2813 23.25 27.2813C23.076 27.2813 22.909 27.2121 22.786 27.0891C22.6629 26.966 22.5938 26.7991 22.5938 26.625V21.375C22.5937 21.2888 22.6106 21.2035 22.6436 21.1238C22.6766 21.0442 22.7249 20.9718 22.7859 20.9109C22.8468 20.8499 22.9192 20.8016 22.9988 20.7686C23.0785 20.7357 23.1638 20.7187 23.25 20.7188H25.5C25.6741 20.7188 25.841 20.7879 25.964 20.911C26.0871 21.034 26.1563 21.201 26.1563 21.375C26.1563 21.5491 26.0871 21.716 25.964 21.8391C25.841 21.9621 25.6741 22.0313 25.5 22.0313H23.9063V23.3438H25.5ZM30.75 22.0313H29.9063V26.625C29.9063 26.7991 29.8371 26.966 29.714 27.0891C29.591 27.2121 29.4241 27.2813 29.25 27.2813C29.076 27.2813 28.909 27.2121 28.786 27.0891C28.6629 26.966 28.5938 26.7991 28.5938 26.625V22.0313H27.75C27.576 22.0313 27.409 21.9621 27.286 21.8391C27.1629 21.716 27.0938 21.5491 27.0938 21.375C27.0938 21.201 27.1629 21.034 27.286 20.911C27.409 20.7879 27.576 20.7188 27.75 20.7188H30.75C30.9241 20.7188 31.091 20.7879 31.214 20.911C31.3371 21.034 31.4063 21.201 31.4063 21.375C31.4063 21.5491 31.3371 21.716 31.214 21.8391C31.091 21.9621 30.9241 22.0313 30.75 22.0313Z" fill="#D12035"/>
</svg>
