<svg width="49" height="49" viewBox="0 0 49 49" fill="none" xmlns="http://www.w3.org/2000/svg">
<path d="M43.3133 0.499969H5.68673C2.82228 0.499969 0.5 2.82225 0.5 5.6867V43.3132C0.5 46.1777 2.82228 48.5 5.68673 48.5H43.3133C46.1777 48.5 48.5 46.1777 48.5 43.3132V5.6867C48.5 2.82225 46.1777 0.499969 43.3133 0.499969ZM24.4888 42.6063C14.4561 42.6063 6.32255 34.4727 6.32255 24.44C6.32255 14.4065 14.4561 6.27383 24.4888 6.27383C34.5214 6.27383 42.655 14.4065 42.655 24.44C42.655 34.4727 34.5214 42.6063 24.4888 42.6063Z" fill="#D12035"/>
<g clip-path="url(#clip0_1_503)">
<path d="M31.1828 23.9951C30.2837 24.7361 29.1325 25.1818 27.8793 25.1818C27.4455 25.1818 27.0239 25.1284 26.6208 25.0279C27.3416 26.1254 27.7616 27.4373 27.7616 28.8456V30.914C27.7616 31.6876 27.4791 32.3961 27.0127 32.9433H31.7207C32.8396 32.9433 33.7499 32.033 33.7499 30.914V28.8456C33.7499 26.8325 32.7313 25.0531 31.1828 23.9951Z" fill="#D12035"/>
<path d="M20.7873 24.0783C23.0468 24.0783 24.885 22.2401 24.885 19.9806C24.885 17.721 23.0468 15.8828 20.7873 15.8828C18.5278 15.8828 16.6896 17.721 16.6896 19.9806C16.6896 22.2401 18.5278 24.0783 20.7873 24.0783Z" fill="#D12035"/>
<path d="M27.8791 24.0783C30.1386 24.0783 31.9769 22.2401 31.9769 19.9806C31.9769 17.721 30.1386 15.8828 27.8791 15.8828C26.7861 15.8828 25.7918 16.313 25.0562 17.0129C25.6435 17.8552 25.9885 18.8783 25.9885 19.9806C25.9885 21.0829 25.6435 22.1059 25.0562 22.9482C25.7918 23.6481 26.7861 24.0783 27.8791 24.0783Z" fill="#D12035"/>
<path d="M24.0908 23.9951C23.1919 24.7361 22.0407 25.1818 20.7873 25.1818C19.5339 25.1818 18.3827 24.7363 17.4836 23.9951C15.9351 25.0531 14.9165 26.8325 14.9165 28.8456V30.914C14.9165 32.033 15.8268 32.9433 16.9458 32.9433H24.6286C25.7477 32.9433 26.6579 32.033 26.6579 30.914V28.8456C26.6579 26.8325 25.6395 25.0531 24.0908 23.9951Z" fill="#D12035"/>
</g>
<defs>
<clipPath id="clip0_1_503">
<rect width="18.8334" height="18.8334" fill="white" transform="translate(14.9166 15)"/>
</clipPath>
</defs>
</svg>
