<svg width="49" height="49" viewBox="0 0 49 49" fill="none" xmlns="http://www.w3.org/2000/svg">
<path d="M43.3133 0.499969H5.68673C2.82228 0.499969 0.5 2.82225 0.5 5.6867V43.3132C0.5 46.1777 2.82228 48.5 5.68673 48.5H43.3133C46.1777 48.5 48.5 46.1777 48.5 43.3132V5.6867C48.5 2.82225 46.1777 0.499969 43.3133 0.499969ZM24.4888 42.6063C14.4561 42.6063 6.32255 34.4727 6.32255 24.44C6.32255 14.4065 14.4561 6.27383 24.4888 6.27383C34.5214 6.27383 42.655 14.4065 42.655 24.44C42.655 34.4727 34.5214 42.6063 24.4888 42.6063Z" fill="#D12035"/>
<path d="M33.2866 22.1641C32.9987 12.6537 16.4181 12.5989 16.0034 22.0784C15.9955 22.1339 16.0014 22.1904 16.0205 22.243C16.0396 22.2956 16.0714 22.3427 16.1131 22.38L21.3224 27.1815C21.2259 27.277 21.1492 27.3907 21.0969 27.516C21.0445 27.6413 21.0175 27.7757 21.0174 27.9115V33.1139C21.0182 33.3863 21.1267 33.6474 21.3194 33.84C21.512 34.0327 21.7731 34.1413 22.0455 34.1421H27.248C27.5204 34.1413 27.7814 34.0327 27.9741 33.84C28.1667 33.6474 28.2753 33.3864 28.2761 33.1139V27.9115C28.276 27.7757 28.249 27.6413 28.1966 27.516C28.1443 27.3907 28.0676 27.277 27.9711 27.1815L33.1804 22.38C33.2414 22.3238 33.2793 22.2468 33.2866 22.1641ZM22.0455 26.8833C21.9359 26.8833 16.9322 22.1675 16.8911 22.1675C18.2482 21.2319 20.4519 20.9577 21.48 21.9893L23.1431 26.8833L22.0455 26.8833ZM24.9894 26.8833V28.052C24.9882 28.1421 24.9516 28.228 24.8874 28.2913C24.8233 28.3545 24.7368 28.39 24.6467 28.39C24.5566 28.39 24.4702 28.3545 24.406 28.2913C24.3419 28.228 24.3053 28.1421 24.304 28.052V26.8833H23.8834L22.1655 21.8523C22.8278 21.2023 23.7188 20.8382 24.6467 20.8382C25.5747 20.8382 26.4656 21.2023 27.128 21.8523L25.4101 26.8833H24.9894ZM27.2788 26.8868C27.2688 26.8839 27.2584 26.8828 27.248 26.8833H26.1504L27.8134 21.9893C28.8519 20.968 31.0384 21.2251 32.399 22.1676L27.2788 26.8868Z" fill="#D12035"/>
</svg>
