<svg width="49" height="48" viewBox="0 0 49 48" fill="none" xmlns="http://www.w3.org/2000/svg">
<path d="M43.3133 0H5.68673C2.82228 0 0.5 2.32228 0.5 5.18673V42.8133C0.5 45.6777 2.82228 48 5.68673 48H43.3133C46.1777 48 48.5 45.6777 48.5 42.8133V5.18673C48.5 2.32228 46.1777 0 43.3133 0ZM24.4888 42.1063C14.4561 42.1063 6.32255 33.9727 6.32255 23.9401C6.32255 13.9065 14.4561 5.77386 24.4888 5.77386C34.5214 5.77386 42.655 13.9065 42.655 23.9401C42.655 33.9727 34.5214 42.1063 24.4888 42.1063Z" fill="#D12035"/>
<g clip-path="url(#clip0_1_536)">
<path d="M33.1133 13.5C32.0939 13.5 31.2676 14.3263 31.2676 15.3457V17.1914H34.3848C34.7245 17.1914 35 16.9159 35 16.5762V15.3457C35 14.3263 34.1326 13.5 33.1133 13.5Z" fill="#D12035"/>
<path d="M14 32.6543C14 33.6737 14.8263 34.5 15.8457 34.5H25.7462C25.3558 33.9843 25.1152 33.3494 25.1152 32.6543C25.1152 31.9592 25.3558 31.3243 25.7462 30.8086H15.8457C14.8263 30.8086 14 31.6349 14 32.6543Z" fill="#D12035"/>
<path d="M16.4609 20.2676V29.5781H28.1914C28.536 29.5781 28.8066 29.8488 28.8066 30.1934C28.8066 30.5378 28.536 30.8086 28.1914 30.8086C27.1701 30.8086 26.3457 31.633 26.3457 32.6543C26.3457 33.6755 27.1701 34.5 28.1914 34.5C29.2127 34.5 30.0371 33.6755 30.0371 32.6543V26.4609C30.0371 26.2278 29.9055 26.0151 29.697 25.9106L28.3873 25.2557L29.6772 24.6669C29.8965 24.5666 30.0371 24.3479 30.0371 24.107V15.3457C30.0371 14.6506 30.2776 14.0157 30.668 13.5H18.9219C17.5646 13.5 16.4609 14.6037 16.4609 15.9609V17.8066C16.4609 17.97 16.5258 18.1263 16.6412 18.2416L18.0519 19.6523H17.0762C16.7361 19.6523 16.4609 19.9275 16.4609 20.2676ZM20.1523 15.9609H26.3457C26.6858 15.9609 26.9609 16.2361 26.9609 16.5762C26.9609 16.9162 26.6858 17.1914 26.3457 17.1914H20.1523C19.8123 17.1914 19.5371 16.9162 19.5371 16.5762C19.5371 16.2361 19.8123 15.9609 20.1523 15.9609ZM20.1523 20.9238H26.3457C26.6858 20.9238 26.9609 21.199 26.9609 21.5391C26.9609 21.8791 26.6858 22.1543 26.3457 22.1543H20.1523C19.8123 22.1543 19.5371 21.8791 19.5371 21.5391C19.5371 21.199 19.8123 20.9238 20.1523 20.9238ZM20.1523 25.8457H26.3457C26.6858 25.8457 26.9609 26.1209 26.9609 26.4609C26.9609 26.801 26.6858 27.0762 26.3457 27.0762H20.1523C19.8123 27.0762 19.5371 26.801 19.5371 26.4609C19.5371 26.1209 19.8123 25.8457 20.1523 25.8457Z" fill="#D12035"/>
</g>
<defs>
<clipPath id="clip0_1_536">
<rect width="21" height="21" fill="white" transform="translate(14 13.5)"/>
</clipPath>
</defs>
</svg>
