<svg width="49" height="48" viewBox="0 0 49 48" fill="none" xmlns="http://www.w3.org/2000/svg">
<path d="M43.3133 0H5.68673C2.82228 0 0.5 2.32228 0.5 5.18673V42.8133C0.5 45.6777 2.82228 48 5.68673 48H43.3133C46.1777 48 48.5 45.6777 48.5 42.8133V5.18673C48.5 2.32228 46.1777 0 43.3133 0ZM24.4888 42.1063C14.4561 42.1063 6.32255 33.9727 6.32255 23.9401C6.32255 13.9065 14.4561 5.77386 24.4888 5.77386C34.5214 5.77386 42.655 13.9065 42.655 23.9401C42.655 33.9727 34.5214 42.1063 24.4888 42.1063Z" fill="#D12035"/>
<path fill-rule="evenodd" clip-rule="evenodd" d="M17.8133 14H32.1421C32.6897 14 33.146 14.0913 33.6936 14.3651C34.3325 14.6389 34.6976 15.0952 34.8801 15.4603C34.8801 15.4603 34.8801 15.5515 34.9714 15.5515C35.2452 16.0079 35.4277 16.5555 35.4277 17.1943C35.4277 17.7419 35.3364 18.2895 34.9714 18.8371L25.936 34.3524C25.7535 34.7175 25.3884 34.9 24.9321 34.9C24.567 34.9 24.2019 34.7175 23.9281 34.3524L15.0753 18.8371C14.8928 18.4721 14.5277 18.0157 14.5277 17.2856C14.4364 16.6467 14.619 16.0991 14.8928 15.5515C15.1666 15.0039 15.6229 14.5476 16.2618 14.3651C16.8094 14 17.4482 14 17.8133 14ZM23.8369 16.1904H17.8133C17.4482 16.1904 17.2657 16.1904 17.1744 16.2817C16.9919 16.3729 16.9006 16.4642 16.8094 16.6467C16.7181 16.738 16.7181 16.9205 16.7181 17.1031C16.7181 17.1943 16.8094 17.2856 16.9919 17.6507L23.8369 29.5153V16.1904ZM26.0273 16.1904V29.6065L32.9635 17.6507C33.0548 17.4681 33.0548 17.2856 33.0548 17.1031C33.0548 16.9205 33.0548 16.738 32.9635 16.6467C32.8722 16.5555 32.8722 16.4642 32.781 16.4642L32.6897 16.3729C32.5072 16.2817 32.3246 16.2817 32.0509 16.2817H26.0273V16.1904Z" fill="#D12035"/>
</svg>
