<svg width="48" height="48" viewBox="0 0 48 48" fill="none" xmlns="http://www.w3.org/2000/svg">
<path d="M42.8133 0H5.18673C2.32228 0 0 2.32228 0 5.18673V42.8133C0 45.6777 2.32228 48 5.18673 48H42.8133C45.6777 48 48 45.6777 48 42.8133V5.18673C48 2.32228 45.6777 0 42.8133 0ZM23.9888 42.1063C13.9561 42.1063 5.82255 33.9727 5.82255 23.9401C5.82255 13.9065 13.9561 5.77386 23.9888 5.77386C34.0214 5.77386 42.155 13.9065 42.155 23.9401C42.155 33.9727 34.0214 42.1063 23.9888 42.1063Z" fill="#D12035"/>
<g clip-path="url(#clip0_1_545)">
<path d="M18.7949 14.0046L14.3332 18.4663L17.5533 21.6864L19.0486 20.1909L19.877 21.0193L18.3817 22.5146L19.205 23.3381L23.6667 18.8765L18.7949 14.0046ZM19.1161 18.7872C18.9882 18.9151 18.8182 18.9856 18.6375 18.9856C18.4569 18.9856 18.287 18.9152 18.1592 18.7875C17.8954 18.5235 17.8954 18.0943 18.1592 17.8306C18.287 17.7028 18.4569 17.6324 18.6375 17.6324C18.8182 17.6324 18.9882 17.7028 19.1159 17.8305C19.3797 18.0943 19.3797 18.5234 19.1161 18.7872Z" fill="#D12035"/>
<path d="M24.9907 29.1238L25.8217 29.9548L27.3208 28.4556L28.1492 29.284L26.6501 30.7832L27.4733 31.6064L28.9724 30.1072L29.8008 30.9356L28.3017 32.4348L29.8669 34L34.3286 29.5384L29.4525 24.6621L24.9907 29.1238Z" fill="#D12035"/>
<path d="M34.3309 14L28.0524 16.4353L31.8958 20.2785L34.3309 14Z" fill="#D12035"/>
<path d="M15.8187 28.3809L14.8702 29.3292C14.5281 29.6714 14.3395 30.1265 14.3395 30.6105C14.3395 31.0945 14.5281 31.5493 14.8702 31.8918L16.4393 33.4608C16.7816 33.8031 17.2366 33.9915 17.7206 33.9915C18.2046 33.9915 18.6596 33.8031 19.0019 33.4608L19.9502 32.5125L15.8187 28.3809Z" fill="#D12035"/>
<path d="M28.7315 18.7711L27.0799 17.1193L16.6469 27.5524L18.2986 29.204L28.7315 18.7711Z" fill="#D12035"/>
<path d="M29.2038 23.2587L31.2115 21.251L29.5599 19.5994L19.1269 30.0324L20.7785 31.684L29.2038 23.2587Z" fill="#D12035"/>
</g>
<defs>
<clipPath id="clip0_1_545">
<rect width="20" height="20" fill="white" transform="translate(14.3332 14)"/>
</clipPath>
</defs>
</svg>
