<svg width="48" height="48" viewBox="0 0 48 48" fill="none" xmlns="http://www.w3.org/2000/svg">
<path d="M42.8133 0H5.18673C2.32228 0 0 2.32228 0 5.18673V42.8133C0 45.6777 2.32228 48 5.18673 48H42.8133C45.6777 48 48 45.6777 48 42.8133V5.18673C48 2.32228 45.6777 0 42.8133 0ZM23.9888 42.1063C13.9561 42.1063 5.82255 33.9727 5.82255 23.9401C5.82255 13.9065 13.9561 5.77386 23.9888 5.77386C34.0214 5.77386 42.155 13.9065 42.155 23.9401C42.155 33.9727 34.0214 42.1063 23.9888 42.1063Z" fill="#D12035"/>
<g clip-path="url(#clip0_1_574)">
<path d="M33 26.571C33 28.465 30.538 30 27.5 30C24.462 30 22 28.465 22 26.571C22 24.677 24.462 23.143 27.5 23.143C30.538 23.143 33 24.678 33 26.571ZM27.5 31.857C24.462 31.857 22 30.322 22 28.429V30.571C22 32.465 24.462 34 27.5 34C30.538 34 33 32.465 33 30.571V28.429C33 30.322 30.538 31.857 27.5 31.857ZM20.5 20.857C23.538 20.857 26 19.322 26 17.429C26 15.536 23.538 14 20.5 14C17.462 14 15 15.535 15 17.429C15 19.323 17.462 20.857 20.5 20.857ZM20.375 24.857C20.8502 23.8628 21.6091 23.0315 22.556 22.468C21.8835 22.6354 21.193 22.7194 20.5 22.718C17.462 22.714 15 21.179 15 19.286V21.428C15 23.3 17.4 24.811 20.375 24.853V24.857ZM20.5 34C20.8607 33.9997 21.221 33.9774 21.579 33.933C20.9507 33.3673 20.4788 32.6492 20.209 31.848C17.307 31.753 15 30.261 15 28.429V30.571C15 32.465 17.462 34 20.5 34ZM20 29.556V27.4C17.2 27.24 15 25.787 15 24V26.143C15 27.931 17.2 29.4 20 29.556Z" fill="#D12035"/>
</g>
<defs>
<clipPath id="clip0_1_574">
<rect width="24" height="24" fill="white" transform="translate(12 12)"/>
</clipPath>
</defs>
</svg>
