<svg width="49" height="48" viewBox="0 0 49 48" fill="none" xmlns="http://www.w3.org/2000/svg">
<path d="M43.3133 0H5.68673C2.82228 0 0.5 2.32228 0.5 5.18673V42.8133C0.5 45.6777 2.82228 48 5.68673 48H43.3133C46.1777 48 48.5 45.6777 48.5 42.8133V5.18673C48.5 2.32228 46.1777 0 43.3133 0ZM24.4888 42.1063C14.4561 42.1063 6.32255 33.9727 6.32255 23.9401C6.32255 13.9065 14.4561 5.77386 24.4888 5.77386C34.5214 5.77386 42.655 13.9065 42.655 23.9401C42.655 33.9727 34.5214 42.1063 24.4888 42.1063Z" fill="#D12035"/>
<path fill-rule="evenodd" clip-rule="evenodd" d="M21.1413 28.7614L24.3466 26.9109L17.2812 22.8317L14.4275 24.4793C14.3918 24.4998 14.3621 24.5293 14.3414 24.565C14.3208 24.6006 14.3099 24.641 14.3099 24.6822C14.3099 24.7234 14.3208 24.7639 14.3414 24.7995C14.3621 24.8351 14.3918 24.8647 14.4275 24.8852L21.1413 28.7614ZM24.6719 13.0711C24.6719 12.9841 24.7065 12.9006 24.768 12.8391C24.8295 12.7776 24.913 12.743 25 12.743C25.087 12.743 25.1705 12.7776 25.232 12.8391C25.2936 12.9006 25.3281 12.9841 25.3281 13.0711V16.497C25.3281 16.584 25.2936 16.6674 25.232 16.729C25.1705 16.7905 25.087 16.8251 25 16.8251C24.913 16.8251 24.8295 16.7905 24.768 16.729C24.7065 16.6674 24.6719 16.584 24.6719 16.497V13.0711ZM33.0715 17.5427C33.1466 17.4991 33.236 17.4873 33.3199 17.5096C33.4037 17.532 33.4753 17.5867 33.5188 17.6619C33.5623 17.737 33.5742 17.8263 33.5519 17.9102C33.5295 17.9941 33.4748 18.0657 33.3996 18.1092L30.4328 19.8221C30.3956 19.8437 30.3545 19.8577 30.3119 19.8634C30.2693 19.869 30.226 19.8662 30.1845 19.8552C30.1429 19.8441 30.104 19.825 30.0698 19.7988C30.0357 19.7727 30.007 19.7401 29.9855 19.7029C29.9639 19.6657 29.9499 19.6247 29.9443 19.582C29.9386 19.5394 29.9414 19.4961 29.9524 19.4546C29.9635 19.413 29.9827 19.3741 30.0088 19.34C30.0349 19.3058 30.0675 19.2772 30.1047 19.2556L33.0716 17.5427H33.0715ZM29.4715 14.1824L27.7586 17.1493C27.7154 17.2244 27.7039 17.3136 27.7265 17.3972C27.7491 17.4809 27.8039 17.5521 27.8791 17.5953C27.9542 17.6385 28.0434 17.65 28.127 17.6274C28.2107 17.6048 28.2819 17.5499 28.3251 17.4748L30.0381 14.5078C30.0807 14.4327 30.0919 14.3438 30.0692 14.2605C30.0464 14.1772 29.9916 14.1063 29.9168 14.0632C29.8419 14.0202 29.753 14.0086 29.6696 14.0309C29.5862 14.0532 29.515 14.1076 29.4716 14.1822L29.4715 14.1824ZM16.6004 18.1092C16.5632 18.0876 16.5306 18.059 16.5045 18.0248C16.4783 17.9907 16.4592 17.9517 16.4481 17.9102C16.4371 17.8687 16.4343 17.8254 16.44 17.7827C16.4456 17.7401 16.4596 17.6991 16.4812 17.6619C16.5027 17.6247 16.5314 17.5921 16.5655 17.5659C16.5997 17.5398 16.6386 17.5207 16.6802 17.5096C16.764 17.4873 16.8534 17.4991 16.9285 17.5427L19.8953 19.2556C19.9325 19.2772 19.9651 19.3058 19.9912 19.34C20.0174 19.3741 20.0365 19.413 20.0476 19.4546C20.0586 19.4961 20.0614 19.5394 20.0557 19.582C20.0501 19.6247 20.0361 19.6657 20.0145 19.7029C19.993 19.7401 19.9643 19.7727 19.9302 19.7988C19.896 19.825 19.8571 19.8441 19.8155 19.8552C19.774 19.8662 19.7307 19.869 19.6881 19.8634C19.6455 19.8577 19.6044 19.8437 19.5672 19.8221L16.6004 18.1092ZM19.9619 14.5078L21.6748 17.475C21.7185 17.5492 21.7896 17.6032 21.8728 17.6253C21.9561 17.6473 22.0446 17.6356 22.1193 17.5927C22.1939 17.5498 22.2486 17.4792 22.2715 17.3962C22.2943 17.3132 22.2835 17.2245 22.2414 17.1495L20.5285 14.1824C20.4846 14.1087 20.4135 14.0552 20.3305 14.0334C20.2475 14.0117 20.1594 14.0235 20.085 14.0662C20.0106 14.1089 19.956 14.1792 19.933 14.2618C19.91 14.3444 19.9204 14.4328 19.9619 14.5078ZM32.7188 22.8317L25.6534 26.9109L28.8588 28.7615L35.5725 24.8853C35.6082 24.8648 35.6379 24.8352 35.6585 24.7996C35.6792 24.764 35.69 24.7235 35.69 24.6823C35.69 24.6411 35.6792 24.6007 35.6585 24.5651C35.6379 24.5294 35.6082 24.4999 35.5725 24.4794L32.7188 22.8317V22.8317ZM32.0647 22.4548L25 26.5336L17.9353 22.4548L24.8828 18.4437C24.9183 18.4226 24.9587 18.4114 25 18.4114C25.0413 18.4114 25.0818 18.4226 25.1172 18.4437L32.0647 22.4548ZM24.6719 27.4775V35.257L17.7266 31.2472C17.6905 31.227 17.6606 31.1975 17.64 31.1618C17.6194 31.1261 17.6088 31.0854 17.6094 31.0442V27.4781L20.9766 29.4222C21.0263 29.4508 21.0826 29.4659 21.14 29.4659C21.1974 29.4659 21.2537 29.4508 21.3034 29.4222L24.6719 27.4775ZM32.3906 27.4783V31.0442C32.3912 31.0855 32.3806 31.1261 32.36 31.1618C32.3393 31.1975 32.3094 31.227 32.2734 31.2472L25.3281 35.257V27.4775L28.6777 29.4114C28.7286 29.4453 28.7879 29.4643 28.849 29.4662C28.9101 29.4682 28.9705 29.4529 29.0234 29.4223L32.3906 27.4783Z" fill="#D12035"/>
</svg>
