<svg width="48" height="48" viewBox="0 0 48 48" fill="none" xmlns="http://www.w3.org/2000/svg">
<path d="M42.8133 0H5.18673C2.32228 0 0 2.32228 0 5.18673V42.8133C0 45.6777 2.32228 48 5.18673 48H42.8133C45.6777 48 48 45.6777 48 42.8133V5.18673C48 2.32228 45.6777 0 42.8133 0ZM23.9888 42.1063C13.9561 42.1063 5.82255 33.9727 5.82255 23.9401C5.82255 13.9065 13.9561 5.77386 23.9888 5.77386C34.0214 5.77386 42.155 13.9065 42.155 23.9401C42.155 33.9727 34.0214 42.1063 23.9888 42.1063Z" fill="#D12035"/>
<g clip-path="url(#clip0_1_563)">
<path d="M31.4145 20.7317C31.4845 20.8017 31.5442 20.8793 31.5957 20.9616L32.0388 20.5186C32.3571 20.2003 32.3571 19.6825 32.0388 19.3641L29.6361 16.9614C29.3178 16.6431 28.8 16.6431 28.4817 16.9614L28.0377 17.4054C28.1199 17.457 28.1983 17.5154 28.2686 17.5858L31.4145 20.7317Z" fill="#D12035"/>
<path d="M24.1611 22.4758C24.1006 22.4153 24.0486 22.3493 24.0025 22.2802L16.0982 31.1763C15.669 31.6593 15.6907 32.3956 16.1476 32.8525C16.6052 33.3099 17.3415 33.3307 17.8238 32.9019L26.7186 24.9988C26.6496 24.9523 26.5843 24.8992 26.5242 24.839L24.1611 22.4758Z" fill="#D12035"/>
<path d="M23.9528 20.9249C23.9793 20.8776 24.0047 20.8298 24.0378 20.7854L26.312 17.7285C26.3601 17.6639 26.4152 17.6061 26.4737 17.5523C24.9964 16.4908 20.5882 13.9715 15.7659 17.4489C15.6922 17.502 15.6582 17.5945 15.6797 17.6826C15.7015 17.7707 15.7744 17.837 15.8643 17.8499C15.9201 17.858 21.1715 18.6389 23.9528 20.9249Z" fill="#D12035"/>
<path d="M31.4472 22.5255C31.3932 22.5839 31.3363 22.64 31.2715 22.6883L28.2148 24.9624C28.1707 24.9952 28.1238 25.0224 28.0767 25.049C30.3604 27.8296 31.1422 33.08 31.1503 33.1359C31.1632 33.2257 31.2295 33.2986 31.3176 33.3204C31.4044 33.3419 31.4982 33.3084 31.5513 33.2343C35.0292 28.411 32.5082 24.0018 31.4472 22.5255Z" fill="#D12035"/>
<path d="M27.5922 20.6886C27.4079 20.6886 27.2235 20.7588 27.0832 20.8991C26.8026 21.1797 26.8026 21.6364 27.0832 21.917C27.3639 22.1976 27.8205 22.1976 28.1011 21.917C28.3818 21.6364 28.3818 21.1797 28.1011 20.8991C27.9608 20.7588 27.7764 20.6886 27.5922 20.6886Z" fill="#D12035"/>
<path d="M31.3466 21.71C31.3646 21.4631 31.2746 21.2212 31.0996 21.0462L27.9537 17.9003C27.7787 17.7252 27.5358 17.6354 27.2899 17.6533C27.0432 17.6715 26.8169 17.7957 26.6694 17.9941L24.3951 21.051C24.1449 21.3873 24.1797 21.8644 24.476 22.1607L26.8393 24.5239C27.0031 24.6877 27.2221 24.7717 27.442 24.7717C27.62 24.7717 27.7984 24.7167 27.9489 24.6048L31.0058 22.3307C31.2043 22.183 31.3285 21.9567 31.3466 21.71ZM28.416 22.2316C28.1888 22.4587 27.8905 22.5722 27.5922 22.5722C27.2939 22.5722 26.9955 22.4587 26.7684 22.2316C26.3141 21.7773 26.3141 21.0383 26.7684 20.584C27.2227 20.1297 27.9617 20.1297 28.416 20.584C28.8703 21.0383 28.8703 21.7773 28.416 22.2316Z" fill="#D12035"/>
</g>
<defs>
<clipPath id="clip0_1_563">
<rect width="19" height="19" fill="white" transform="translate(15 15)"/>
</clipPath>
</defs>
</svg>
