<svg width="48" height="48" viewBox="0 0 48 48" fill="none" xmlns="http://www.w3.org/2000/svg">
<path d="M42.8133 0H5.18673C2.32228 0 0 2.32228 0 5.18673V42.8133C0 45.6777 2.32228 48 5.18673 48H42.8133C45.6777 48 48 45.6777 48 42.8133V5.18673C48 2.32228 45.6777 0 42.8133 0ZM23.9888 42.1063C13.9561 42.1063 5.82255 33.9727 5.82255 23.9401C5.82255 13.9065 13.9561 5.77386 23.9888 5.77386C34.0214 5.77386 42.155 13.9065 42.155 23.9401C42.155 33.9727 34.0214 42.1063 23.9888 42.1063Z" fill="#D12035"/>
<path fill-rule="evenodd" clip-rule="evenodd" d="M19 20.875H15.875C15.53 20.875 15.25 21.155 15.25 21.5V26.5C15.25 26.845 15.53 27.125 15.875 27.125H16.5V32.125C16.5 32.47 16.78 32.75 17.125 32.75H30.875C31.22 32.75 31.5 32.47 31.5 32.125V27.125H32.125C32.47 27.125 32.75 26.845 32.75 26.5V21.5C32.75 21.155 32.47 20.875 32.125 20.875H29V15.875C29 15.53 28.72 15.25 28.375 15.25H19.625C19.28 15.25 19 15.53 19 15.875V20.875ZM29 22.125V24C29 24.345 28.72 24.625 28.375 24.625H19.625C19.28 24.625 19 24.345 19 24V22.125H16.5V25.875H31.5V22.125H29ZM21.9956 20.3794L23.2456 21.6294C23.3737 21.7575 23.5513 21.8238 23.7319 21.8106C23.9125 21.7981 24.0787 21.7075 24.1875 21.5625L26.0625 19.0625C26.2694 18.7863 26.2137 18.3944 25.9375 18.1875C25.6613 17.9806 25.2694 18.0363 25.0625 18.3125L23.62 20.2362L22.8794 19.4956C22.6356 19.2519 22.2394 19.2519 21.9956 19.4956C21.7519 19.7394 21.7519 20.1356 21.9956 20.3794Z" fill="#D12035"/>
</svg>
