<svg width="49" height="48" viewBox="0 0 49 48" fill="none" xmlns="http://www.w3.org/2000/svg">
<path d="M43.3133 0H5.68673C2.82228 0 0.5 2.32228 0.5 5.18673V42.8133C0.5 45.6777 2.82228 48 5.68673 48H43.3133C46.1777 48 48.5 45.6777 48.5 42.8133V5.18673C48.5 2.32228 46.1777 0 43.3133 0ZM24.4888 42.1063C14.4561 42.1063 6.32255 33.9727 6.32255 23.9401C6.32255 13.9065 14.4561 5.77386 24.4888 5.77386C34.5214 5.77386 42.655 13.9065 42.655 23.9401C42.655 33.9727 34.5214 42.1063 24.4888 42.1063Z" fill="#D12035"/>
<g clip-path="url(#clip0_1_581)">
<path d="M23.4689 13.8542C22.1627 12.7889 20.8928 12.2672 19.8619 12.3491L23.9622 21.4574L27.8693 19.6985C26.6761 17.2667 25.1307 15.2094 23.4689 13.8542Z" fill="#D12035"/>
<path d="M15.9167 14.7267C12.955 17.6634 11.8519 22.1557 13.3556 26.2324L17.2614 24.474C15.7513 20.8229 15.3215 17.2891 15.9167 14.7267Z" fill="#D12035"/>
<path d="M33.1726 17.3112C31.1174 13.4828 27.0231 11.3303 22.861 11.6005C25.1739 12.8538 27.5345 15.5183 29.2667 19.0695L33.1726 17.3112Z" fill="#D12035"/>
<path d="M18.4653 12.9778C17.7205 13.6953 17.2692 14.9919 17.2007 16.676C17.1136 18.8186 17.6291 21.3395 18.6585 23.8451L22.5657 22.0862L18.4653 12.9778Z" fill="#D12035"/>
<path d="M23.4095 31.2561C22.7678 31.545 22.4808 32.3021 22.7697 32.9438L24.7198 37.2758C25.0087 37.9175 25.7658 38.2045 26.4075 37.9157L33.266 34.8281C33.9077 34.5392 34.1947 33.7821 33.9058 33.1404L31.9557 28.8085C31.6668 28.1667 30.9097 27.8797 30.268 28.1686L28.4848 28.9713L33.3804 18.8973L31.2007 19.8785L28.3351 25.7754L28.9057 20.9117L27.2777 21.6446L26.6097 27.3381L24.5911 22.854L23.1945 23.4827L25.2132 27.9668L20.508 24.6921L18.8799 25.4251L22.8994 28.2224L16.5849 26.4583L14.4052 27.4395L25.1927 30.4534L23.4096 31.2562L23.4095 31.2561Z" fill="#D12035"/>
</g>
<defs>
<clipPath id="clip0_1_581">
<rect width="26" height="26" fill="white" transform="translate(7.30933 18) rotate(-24.2363)"/>
</clipPath>
</defs>
</svg>
